<svg xmlns="http://www.w3.org/2000/svg" width="96" height="96" viewBox="0 0 96 96" fill="none"><path d="M82.1602 42.8068C80.1831 42.8068 78.4256 44.5873 78.4256 46.5904C78.4256 48.5935 80.1098 50.374 82.1602 50.374C84.1373 50.374 85.8215 48.5935 85.8215 46.5904C85.8215 44.5131 84.1373 42.8068 82.1602 42.8068Z" fill="#009A44"></path><path d="M24.7506 42.8068H22.4073V46.442H24.7506C26.0686 46.442 26.6544 45.4776 26.6544 44.5873C26.6544 43.6971 26.0686 42.8068 24.7506 42.8068Z" fill="#009A44"></path><path fill-rule="evenodd" clip-rule="evenodd" d="M0 48C0 21.5147 21.4554 0 47.9634 0C74.4714 0 95.9268 21.5147 95.9268 48C95.9268 74.4853 74.4714 96 47.9634 96C21.4554 96 0 74.4853 0 48ZM75.7895 46.5162C75.7895 50.0773 78.6453 52.8965 82.1602 52.8965C85.6751 52.8965 88.5309 50.0773 88.5309 46.5162C88.5309 42.9552 85.6751 40.136 82.1602 40.136C78.6453 40.136 75.7895 43.0294 75.7895 46.5162ZM85.968 60.8346C86.1877 60.8346 86.4073 60.6121 86.4073 60.3895V58.6832C86.4073 58.4606 86.1877 58.238 85.968 58.238H78.4989C78.2792 58.238 78.0595 58.4606 78.0595 58.6832V60.3895C78.0595 60.6121 78.2792 60.8346 78.4989 60.8346H85.968ZM70.5904 52.7481C70.7368 52.7481 70.8833 52.6739 70.8833 52.4513V40.5811C70.8833 40.4328 70.7368 40.2844 70.5904 40.2844H68.54C68.3936 40.2844 68.2471 40.4328 68.2471 40.5811V45.3292H62.9748V40.5811C62.9748 40.4328 62.8284 40.2844 62.6819 40.2844H60.6316C60.4851 40.2844 60.3387 40.4328 60.3387 40.5811V52.4513C60.3387 52.5997 60.4119 52.7481 60.6316 52.7481H62.6819C62.8284 52.7481 62.9748 52.5997 62.9748 52.4513V48H68.2471V51.932C68.2471 52.3771 68.5401 52.7481 69.0526 52.7481H70.5904ZM47.3367 51.1488C47.7436 51.5632 49.0529 52.8965 51.3318 52.8965C53.8215 52.8965 55.6522 51.2643 55.6522 49.187C55.6522 46.8829 53.6518 45.9764 51.5925 45.0433C51.5301 45.015 51.4675 44.9867 51.405 44.9583C50.4531 44.5873 50.0137 44.2906 50.0137 43.6971C50.0137 43.1777 50.5995 42.6584 51.405 42.6584C52.2744 42.6584 53.0826 43.2152 53.551 43.5379C53.5955 43.5686 53.6369 43.5971 53.6751 43.6229C53.8947 43.7713 54.1876 43.6971 54.3341 43.4745L55.286 42.1391C55.5057 41.9165 55.3593 41.694 55.2128 41.5456C54.8467 41.2488 53.4554 40.136 51.5515 40.136C48.7689 40.136 47.3776 42.0649 47.3776 43.7713C47.3776 45.9227 49.2082 46.813 51.5515 47.9258L51.5754 47.9368C52.37 48.3027 53.016 48.6001 53.016 49.2612C53.016 50.0031 52.2105 50.374 51.3318 50.374C50.4186 50.374 49.7079 49.81 49.1996 49.4066C49.0965 49.3248 49.0018 49.2496 48.9153 49.187C48.6957 49.0386 48.476 49.0386 48.2563 49.2612L47.2311 50.5966C47.0114 50.8192 47.1579 50.9675 47.3043 51.1159C47.3144 51.1261 47.3252 51.1371 47.3367 51.1488ZM42.3249 42.8068C42.4714 42.8068 42.6179 42.7326 42.6179 42.51H42.5446V40.5811C42.5446 40.4328 42.3982 40.2844 42.2517 40.2844H34.6362C34.4897 40.2844 34.3433 40.4328 34.3433 40.5811V52.4513C34.3433 52.5997 34.4165 52.7481 34.6362 52.7481H42.3249C42.4714 52.7481 42.6179 52.6739 42.6179 52.4513V50.5966C42.6179 50.4482 42.4714 50.2999 42.3249 50.2999H37.0526V47.9258H39.8352C39.9817 47.9258 40.1281 47.8516 40.1281 47.6291V45.7743C40.1281 45.626 39.9817 45.4776 39.8352 45.4776H37.0526V42.8068H42.3249ZM27.5332 52.8223H29.4371C29.73 52.8223 29.8032 52.6739 29.5835 52.5255L27.0206 48.5193C28.4851 47.7033 29.2906 46.1453 29.2906 44.6615C29.2906 42.7326 27.6796 40.3586 25.1167 40.3586H20.0641C19.9176 40.3586 19.7712 40.507 19.7712 40.6553V52.5255C19.7712 52.6739 19.8444 52.8223 20.0641 52.8223H22.1144C22.2609 52.8223 22.4073 52.7481 22.4073 52.5255V48.9645H24.5309L26.508 52.1546C26.6545 52.3771 27.0938 52.8223 27.5332 52.8223ZM15.3043 42.8068C15.4508 42.8068 15.5973 42.7326 15.5973 42.51V40.5811C15.5973 40.4328 15.4508 40.2844 15.3043 40.2844H7.76201C7.61556 40.2844 7.46911 40.4328 7.46911 40.5811V51.932C7.46911 52.4513 7.76201 52.7481 8.2746 52.7481H9.81236C9.95881 52.7481 10.1053 52.6739 10.1053 52.4513V47.9258H12.8146C12.9611 47.9258 13.1076 47.8516 13.1076 47.6291V45.7743C13.1076 45.626 12.9611 45.4776 12.8146 45.4776H10.1053V42.8068H15.3043Z" fill="#009A44"></path></svg>